<?xml version="1.0" encoding="UTF-8" standalone="no"?>
<svg
   xmlns:dc="http://purl.org/dc/elements/1.1/"
   xmlns:cc="http://creativecommons.org/ns#"
   xmlns:rdf="http://www.w3.org/1999/02/22-rdf-syntax-ns#"
   xmlns:svg="http://www.w3.org/2000/svg"
   xmlns="http://www.w3.org/2000/svg"
   xmlns:sodipodi="http://sodipodi.sourceforge.net/DTD/sodipodi-0.dtd"
   xmlns:inkscape="http://www.inkscape.org/namespaces/inkscape"
   enable-background="new 0 0 32 32"
   height="32px"
   id="Слой_1"
   version="1.1"
   viewBox="0 0 32 32"
   width="32px"
   xml:space="preserve"
   sodipodi:docname="next.svg"
   inkscape:version="0.92.3 (2405546, 2018-03-11)"><metadata
     id="metadata20"><rdf:RDF><cc:Work
         rdf:about=""><dc:format>image/svg+xml</dc:format><dc:type
           rdf:resource="http://purl.org/dc/dcmitype/StillImage" /><dc:title></dc:title></cc:Work></rdf:RDF></metadata><defs
     id="defs18" /><sodipodi:namedview
     pagecolor="#ffffff"
     bordercolor="#666666"
     borderopacity="1"
     objecttolerance="10"
     gridtolerance="10"
     guidetolerance="10"
     inkscape:pageopacity="0"
     inkscape:pageshadow="2"
     inkscape:window-width="1920"
     inkscape:window-height="1001"
     id="namedview16"
     showgrid="false"
     inkscape:zoom="20.85965"
     inkscape:cx="14.322521"
     inkscape:cy="14.922812"
     inkscape:window-x="-9"
     inkscape:window-y="-9"
     inkscape:window-maximized="1"
     inkscape:current-layer="Слой_1" /><path
     d="M 1.00025,15 24.369882,13.513877 20.50325,6.707 c -0.391,-0.391 -0.391,-1.024 0,-1.414 0.391,-0.391 1.024,-0.391 1.414,0 l 9.9,9.899 c 0.385,0.385 0.385,1.029 0,1.414 l -9.9,9.9 c -0.391,0.391 -1.024,0.391 -1.414,0 -0.391,-0.391 -0.391,-1.024 0,-1.414 L 24.274003,18.486123 1.00025,17 c -0.550878,-0.03518 -1,-0.448 -1,-1 0,-0.552 0.448,-1 1,-1 z"
     id="Arrow_Back"
     inkscape:connector-curvature="0"
     style="clip-rule:evenodd;fill-rule:evenodd"
     sodipodi:nodetypes="scccccsscccsss" /><g
     id="g3"
     transform="matrix(-1,0,0,1,32.10625,0)" /><g
     id="g5"
     transform="matrix(-1,0,0,1,32.10625,0)" /><g
     id="g7"
     transform="matrix(-1,0,0,1,32.10625,0)" /><g
     id="g9"
     transform="matrix(-1,0,0,1,32.10625,0)" /><g
     id="g11"
     transform="matrix(-1,0,0,1,32.10625,0)" /><g
     id="g13"
     transform="matrix(-1,0,0,1,32.10625,0)" /></svg>